<?xml version="1.0" encoding="UTF-8" standalone="no"?>
<svg
   xmlns:dc="http://purl.org/dc/elements/1.1/"
   xmlns:cc="http://creativecommons.org/ns#"
   xmlns:rdf="http://www.w3.org/1999/02/22-rdf-syntax-ns#"
   xmlns:svg="http://www.w3.org/2000/svg"
   xmlns="http://www.w3.org/2000/svg"
   xmlns:sodipodi="http://sodipodi.sourceforge.net/DTD/sodipodi-0.dtd"
   xmlns:inkscape="http://www.inkscape.org/namespaces/inkscape"
   width="70.31353mm"
   height="12.702485mm"
   viewBox="0 0 70.31353 12.702485"
   version="1.1"
   id="svg8"
   inkscape:version="1.0.1 (3bc2e813f5, 2020-09-07)"
   sodipodi:docname="Screwdriver.svg">
  <defs
     id="defs2">
    <inkscape:path-effect
       effect="bspline"
       id="path-effect934"
       is_visible="true"
       lpeversion="1"
       weight="33.333333"
       steps="2"
       helper_size="0"
       apply_no_weight="true"
       apply_with_weight="true"
       only_selected="false" />
    <inkscape:path-effect
       effect="bspline"
       id="path-effect908"
       is_visible="true"
       lpeversion="1"
       weight="33.333333"
       steps="2"
       helper_size="0"
       apply_no_weight="true"
       apply_with_weight="true"
       only_selected="false" />
    <inkscape:path-effect
       effect="bspline"
       id="path-effect889"
       is_visible="true"
       lpeversion="1"
       weight="33.333333"
       steps="2"
       helper_size="0"
       apply_no_weight="true"
       apply_with_weight="true"
       only_selected="false" />
    <inkscape:path-effect
       effect="bspline"
       id="path-effect885"
       is_visible="true"
       lpeversion="1"
       weight="33.333333"
       steps="2"
       helper_size="0"
       apply_no_weight="true"
       apply_with_weight="true"
       only_selected="false" />
    <inkscape:path-effect
       effect="bspline"
       id="path-effect881"
       is_visible="true"
       lpeversion="1"
       weight="33.333333"
       steps="2"
       helper_size="0"
       apply_no_weight="true"
       apply_with_weight="true"
       only_selected="false" />
    <inkscape:path-effect
       effect="bspline"
       id="path-effect877"
       is_visible="true"
       lpeversion="1"
       weight="33.333333"
       steps="2"
       helper_size="0"
       apply_no_weight="true"
       apply_with_weight="true"
       only_selected="false" />
    <inkscape:path-effect
       effect="bspline"
       id="path-effect861"
       is_visible="true"
       lpeversion="1"
       weight="33.333333"
       steps="2"
       helper_size="0"
       apply_no_weight="true"
       apply_with_weight="true"
       only_selected="false" />
    <inkscape:path-effect
       effect="bspline"
       id="path-effect857"
       is_visible="true"
       lpeversion="1"
       weight="33.333333"
       steps="2"
       helper_size="0"
       apply_no_weight="true"
       apply_with_weight="true"
       only_selected="false" />
    <inkscape:path-effect
       effect="bspline"
       id="path-effect853"
       is_visible="true"
       lpeversion="1"
       weight="33.333333"
       steps="2"
       helper_size="0"
       apply_no_weight="true"
       apply_with_weight="true"
       only_selected="false" />
    <inkscape:path-effect
       effect="bspline"
       id="path-effect849"
       is_visible="true"
       lpeversion="1"
       weight="33.333333"
       steps="2"
       helper_size="0"
       apply_no_weight="true"
       apply_with_weight="true"
       only_selected="false" />
  </defs>
  <sodipodi:namedview
     id="base"
     pagecolor="#ffffff"
     bordercolor="#666666"
     borderopacity="1.0"
     inkscape:pageopacity="0.0"
     inkscape:pageshadow="2"
     inkscape:zoom="1.979899"
     inkscape:cx="55.003433"
     inkscape:cy="53.916869"
     inkscape:document-units="mm"
     inkscape:current-layer="layer1"
     inkscape:document-rotation="0"
     showgrid="false"
     inkscape:window-width="1920"
     inkscape:window-height="1017"
     inkscape:window-x="-8"
     inkscape:window-y="-8"
     inkscape:window-maximized="1" />
  <metadata
     id="metadata5">
    <rdf:RDF>
      <cc:Work
         rdf:about="">
        <dc:format>image/svg+xml</dc:format>
        <dc:type
           rdf:resource="http://purl.org/dc/dcmitype/StillImage" />
        <dc:title></dc:title>
      </cc:Work>
    </rdf:RDF>
  </metadata>
  <g
     inkscape:label="Layer 1"
     inkscape:groupmode="layer"
     id="layer1"
     transform="translate(-27.742048,-63.93656)">
    <path
       style="fill:#e73131;fill-opacity:1;stroke:#000000;stroke-width:0.264583px;stroke-linecap:butt;stroke-linejoin:miter;stroke-opacity:1"
       d="m 27.940723,68.951572 c -0.05576,1.13193 -0.165991,3.369622 0.148746,4.728999 0.314736,1.359376 1.041435,1.788788 2.012637,2.106876 0.971203,0.318088 2.173918,0.518541 3.476565,0.618498 1.302648,0.09996 2.705813,0.09996 4.598959,0.08881 1.893146,-0.01115 4.276301,-0.03342 5.757379,-0.05573 1.481078,-0.02231 2.060162,-0.04458 2.934064,-0.0724 0.873902,-0.02782 2.041455,-0.06118 2.901628,-0.276684 0.860173,-0.215505 1.411276,-0.613008 1.962451,-1.010563 0,0 0.870856,-1.432496 0.870856,-1.432496 0.0928,0.509845 0.185104,1.017006 0.231747,1.27327 0.04664,0.256264 0.04664,0.256264 0.270866,0.640874 0.224224,0.384609 0.670821,1.150654 0.882157,0.89427 0.211337,-0.256383 0.189061,-1.537052 0.200231,-4.085142 0.01117,-2.548089 0.05552,-6.329025 -0.167405,-7.672077 -0.222927,-1.343053 -0.71059,-0.234729 -0.950936,0.49766 -0.240345,0.732388 -0.229209,1.07761 -0.234922,1.361944 -0.0057,0.284333 -0.02799,0.507057 -0.138546,0.384976 -0.110561,-0.12208 -0.311014,-0.589802 -1.156456,-1.10307 -0.845443,-0.513268 -2.337699,-1.07008 -4.303391,-1.287905 -1.965693,-0.217824 -4.404529,-0.09533 -6.896159,-0.08416 -2.491631,0.01116 -5.025209,-0.08885 -6.937156,-0.04428 -1.911947,0.04457 -3.189377,0.233408 -3.986908,0.824584 -0.797532,0.591175 -1.108696,1.580235 -1.264676,2.076029 -0.15598,0.495793 -0.155971,0.495798 -0.211731,1.627728 z"
       id="path847"
       inkscape:path-effect="#path-effect849"
       inkscape:original-d="m 27.996483,67.819642 c -0.111243,2.263874 -0.221474,4.501566 -0.334086,6.781963 0.741761,0.438422 1.468459,0.867835 2.204974,1.30294 1.205902,0.201205 2.408617,0.401657 3.608138,0.601357 1.40581,0.0026 2.808975,0.0026 4.209494,0 2.385798,-0.01963 4.768953,-0.0419 7.14946,-0.06682 0.581729,-0.01963 1.160814,-0.0419 1.737251,-0.06682 1.171269,-0.03319 2.338822,-0.06655 3.507912,-0.100226 0.551464,-0.397307 1.653526,-1.192665 1.653526,-1.192665 l 0.870856,-1.432496 c 0,0 0.185314,1.016968 0.278389,1.529534 2.64e-4,2.64e-4 2.64e-4,2.64e-4 0,0 0.44853,0.769171 0.895127,1.535216 1.339911,2.29834 -0.02193,-1.275848 -0.04421,-2.556517 -0.06683,-3.842001 0.04497,-3.810687 0.08932,-7.591623 0.133637,-11.392364 -0.490119,1.114774 -0.977781,2.223098 -1.469982,3.34087 0.01144,0.346856 0.02258,0.692078 0.03341,1.035669 -0.01963,0.225372 -0.0419,0.448096 -0.06682,0.668174 -0.197808,-0.465074 -0.398259,-0.932797 -0.601359,-1.403165 -1.489606,-0.554164 -2.981862,-1.110977 -4.476763,-1.670434 -2.435927,0.122631 -4.874763,0.24513 -7.316502,0.367496 -2.541546,-0.10007 -5.075124,-0.20008 -7.617184,-0.300679 -1.28178,0.189785 -2.55921,0.378622 -3.841998,0.567947 -0.312002,0.992828 -0.623167,1.981888 -0.935443,2.973375 z"
       sodipodi:nodetypes="sccccccccccccccccccccccss" />
    <path
       style="fill:none;stroke:#000000;stroke-width:0.264583px;stroke-linecap:butt;stroke-linejoin:miter;stroke-opacity:1"
       d="m 30.535544,67.251693 c 0.448027,-0.0112 0.893474,-0.02234 1.572959,0.02799 0.679485,0.05032 1.592654,0.161685 2.739568,0.228346 1.146914,0.06666 2.527806,0.08893 3.724958,0.111215 1.197152,0.02228 2.210548,0.04455 3.195978,0.02217 0.98543,-0.02239 1.943145,-0.0892 2.884041,-0.189505 0.940896,-0.1003 1.865202,-0.233935 2.600408,-0.300592 0.735205,-0.06666 1.280882,-0.06666 1.82391,-0.06666"
       id="path851"
       inkscape:path-effect="#path-effect853"
       inkscape:original-d="m 30.535544,67.251693 c 0.448095,-0.0085 0.893542,-0.01963 1.336346,-0.03341 0.915819,0.114006 1.828988,0.225369 2.739512,0.334086 1.383541,0.02492 2.764433,0.04719 4.142679,0.06682 1.016043,0.02492 2.029439,0.04719 3.04019,0.06682 0.960363,-0.06417 1.918078,-0.130987 2.873147,-0.200451 0.926955,-0.130989 1.851261,-0.264623 2.772923,-0.400904 0.54832,0.0026 1.093997,0.0026 1.637025,0" />
    <path
       style="fill:none;stroke:#000000;stroke-width:0.264583px;stroke-linecap:butt;stroke-linejoin:miter;stroke-opacity:1"
       d="m 29.266012,70.158249 c 1.049678,0.100502 2.096486,0.200729 4.407132,0.23956 2.310645,0.03883 5.885375,0.01656 8.357616,-1.5e-4 2.47224,-0.01671 3.841996,-0.02784 5.117054,-0.05572 1.275058,-0.02788 2.455499,-0.07242 3.633395,-0.116873"
       id="path855"
       inkscape:path-effect="#path-effect857"
       inkscape:original-d="m 29.266012,70.158249 c 1.049451,0.102873 2.096259,0.2031 3.140419,0.300681 3.577375,-0.01963 7.152105,-0.0419 10.724189,-0.06682 1.372402,-0.0085 2.742158,-0.01963 4.109268,-0.03341 1.183087,-0.0419 2.363528,-0.08645 3.541321,-0.133636" />
    <path
       style="fill:none;stroke:#000000;stroke-width:0.264583px;stroke-linecap:butt;stroke-linejoin:miter;stroke-opacity:1"
       d="m 30.602361,73.398892 c 6.005044,-0.06685 12.007471,-0.133663 18.007283,-0.200451"
       id="path859"
       inkscape:path-effect="#path-effect861"
       inkscape:original-d="m 30.602361,73.398892 c 6.005074,-0.06417 12.007501,-0.130987 18.007283,-0.200451" />
    <path
       style="fill:none;stroke:#000000;stroke-width:0.264583px;stroke-linecap:butt;stroke-linejoin:miter;stroke-opacity:1"
       d="m 51.914096,66.018294 c 0.476782,-0.498316 0.95282,-0.995855 1.428119,-1.492621"
       id="path875"
       inkscape:path-effect="#path-effect877"
       inkscape:original-d="m 51.914096,66.018294 c 0.477052,-0.498057 0.953091,-0.995596 1.428119,-1.492621"
       sodipodi:nodetypes="cc" />
    <path
       style="fill:none;stroke:#000000;stroke-width:0.264583px;stroke-linecap:butt;stroke-linejoin:miter;stroke-opacity:1"
       d="m 51.73315,75.079378 c 0,0 0,0 0.0653,0.04292 0.0653,0.04292 0.186931,0.122861 0.430638,0.233166 0.243707,0.110306 0.601862,0.246643 0.957548,0.38204"
       id="path879"
       inkscape:path-effect="#path-effect881"
       inkscape:original-d="m 51.73315,75.079378 c 0,0 2.65e-4,2.65e-4 0,0 0.130558,0.0859 0.252189,0.165842 0.379024,0.249114 0.360567,0.137419 0.718722,0.273756 1.074462,0.40901"
       sodipodi:nodetypes="cccc" />
    <path
       style="fill:none;stroke:#000000;stroke-width:0.264583px;stroke-linecap:butt;stroke-linejoin:miter;stroke-opacity:1"
       d="m 52.384827,68.253956 c 0.07851,0.426205 0.156465,0.849382 0.195162,1.149869 0.0387,0.300487 0.0387,0.478665 0.05009,0.634751 0.01139,0.156086 0.03366,0.289721 0.05621,0.390032 0.02255,0.100312 0.04483,0.16713 0.07786,0.411986 0.03303,0.244856 0.07758,0.668034 0.121818,1.088316"
       id="path883"
       inkscape:path-effect="#path-effect885"
       inkscape:original-d="m 52.384827,68.253956 c 0.0806,0.42582 0.158552,0.848997 0.23386,1.269529 0.0026,0.180827 0.0026,0.359005 0,0.53454 0.02492,0.136279 0.04719,0.269915 0.06682,0.400905 0.02492,0.06946 0.04719,0.136279 0.06682,0.200451 0.04719,0.425823 0.09174,0.849 0.133635,1.269529" />
    <path
       style="fill:#919191;fill-opacity:1;stroke:#000000;stroke-width:0.268292px;stroke-linecap:butt;stroke-linejoin:miter;stroke-opacity:1"
       d="m 54.098032,69.194513 c 0,0 36.341197,-0.232443 36.341197,-0.232443 0,0 1.936356,-1.341382 1.936356,-1.341382 0,0 5.545843,1.508344 5.545843,1.508344 0,0 0,1.703869 0,1.703869 0,0 -5.553496,1.785775 -5.553496,1.785775 0,0 -1.889881,-1.464658 -1.889881,-1.464658 0,0 -36.332962,0 -36.332962,0"
       id="path887"
       inkscape:original-d="m 54.098032,69.194513 36.341197,-0.232443 1.936356,-1.341382 5.545843,1.508344 v 1.703869 l -5.553496,1.785775 -1.889881,-1.464658 H 54.145089"
       inkscape:path-effect="#path-effect889"
       sodipodi:nodetypes="cccccccc" />
  </g>
</svg>
